<?xml version="1.0" standalone="no"?><!DOCTYPE svg PUBLIC "-//W3C//DTD SVG 1.1//EN" "http://www.w3.org/Graphics/SVG/1.1/DTD/svg11.dtd"><svg t="1753240363244" class="icon" viewBox="0 0 1024 1024" version="1.1" xmlns="http://www.w3.org/2000/svg" p-id="4498" xmlns:xlink="http://www.w3.org/1999/xlink" width="200" height="200"><path d="M855.779493 624.335171L508.048512 688.123484h-10.160971l-349.988974-63.788313c-13.54796-2.257993-22.015436-13.54796-22.015436-28.224917V60.965821c0-18.063947 15.805954-29.918412 31.611908-28.224917l339.828004 63.788313H508.048512l337.570011-63.788313c15.805954-3.951488 31.611907 10.16097 31.611907 28.224917v535.708931c0.564498 14.112459-9.596472 23.708931-21.450937 27.660419z" fill="#FFD500" opacity=".75" p-id="4499"></path><path d="M821.345094 624.335171l-36.127894 5.644983 2.257993-591.594266 23.70893-5.644984c15.805954-3.951488 31.611907 10.16097 31.611908 28.224917v535.708931c1.128997 14.112459-9.031974 23.708931-21.450937 27.660419z" fill="#FFB600" opacity=".75" p-id="4500"></path><path d="M951.744212 909.971334l-435.228225 81.85226h-10.16097l-437.486219-81.85226c-13.54796-2.257993-22.015436-13.54796-22.015435-28.224917V206.606395c0-18.063947 15.805954-29.918412 31.611907-28.224918l430.14774 80.158766h10.16097l427.325248-80.158766c15.805954-3.951488 31.611907 10.16097 31.611908 28.224918v677.398015c-3.951488 12.418964-12.418964 24.273429-25.966924 25.966924z" fill="#00B1FF" opacity=".75" p-id="4501"></path><path d="M905.455347 909.971334l-49.675854 10.16097V186.848953l40.079382-5.644984c15.805954-3.951488 31.611907 10.16097 31.611908 28.224917v677.398016c0.564498 9.596472-7.338479 21.450937-22.015436 23.144432z" fill="#0091F1" opacity=".75" p-id="4502"></path><path d="M833.764057 446.518192L632.238148 482.646086c-13.54796 2.257993-25.966924-5.644983-28.224918-20.32194v-67.739802c0-12.418964 7.902977-22.015436 20.321941-23.708931l201.525909-36.127894c13.54796-2.257993 25.966924 5.644983 28.224918 20.321941v67.739801c0 11.289967-7.902977 21.450937-20.321941 23.708931z" fill="#7BD721" opacity=".75" p-id="4503"></path><path d="M833.764057 446.518192l-22.015435 3.951488V336.441014l13.54796-2.257993c13.54796-2.257993 25.966924 5.644983 28.224917 20.32194v67.739802c0.564498 11.854465-7.338479 22.015436-19.757442 24.273429z" fill="#6EC11D" opacity=".75" p-id="4504"></path></svg>